<svg version="1.1" id="Layer_1" xmlns="http://www.w3.org/2000/svg" xmlns:xlink="http://www.w3.org/1999/xlink" x="0px" y="0px"
	 width="100%" viewBox="0 0 205 88" enable-background="new 0 0 205 88" xml:space="preserve">
<path fill="#000000" opacity="1.000000" stroke="none" 
	d="
M194.000000,89.000000 
	C129.666656,89.000000 65.333305,89.000000 1.000000,89.000000 
	C1.000000,83.585114 1.000000,78.263008 1.445333,72.470474 
	C2.926778,72.772385 4.694504,73.416496 4.856709,74.342003 
	C5.280139,76.757988 4.865010,79.309059 5.081648,81.780182 
	C5.149512,82.554283 6.164040,83.245384 6.745248,83.974480 
	C7.162952,83.247711 7.908937,82.535194 7.941196,81.791702 
	C8.076582,78.671379 7.998362,75.541786 7.998362,72.763809 
	C10.048905,72.002083 11.698794,71.389191 13.348682,70.776291 
	C13.180761,70.184196 13.012839,69.592094 12.844917,69.000000 
	C8.896612,69.000000 4.948306,69.000000 1.000000,69.000000 
	C1.000000,61.645748 1.000000,54.291500 1.439917,46.468624 
	C3.495218,46.000000 5.110602,46.000000 7.402144,46.000000 
	C7.722342,38.722256 8.023933,31.867397 8.325524,25.012537 
	C11.306626,30.467346 13.003701,36.064137 15.103828,41.505360 
	C15.649714,42.919693 17.280149,44.431915 18.722054,44.862591 
	C20.871971,45.504738 22.313271,44.783363 23.196873,41.870274 
	C25.210625,35.231285 28.139023,28.869730 30.665560,22.471973 
	C31.183388,30.291710 31.701883,38.121502 32.201675,45.668900 
	C34.746944,45.668900 36.826633,45.668900 39.081886,45.668900 
	C38.331577,34.241165 37.604038,23.160187 36.871296,12.000021 
	C35.361191,12.000021 34.345890,12.139850 33.382423,11.975610 
	C29.391619,11.295310 27.174858,12.796293 25.940479,16.780245 
	C24.156414,22.538309 21.816483,28.124144 19.625887,34.019825 
	C16.966063,26.407871 14.443890,19.189852 11.977854,12.132489 
	C8.758687,12.132489 6.124231,12.132489 4.286218,12.132489 
	C2.990440,14.051781 1.995220,15.525890 1.000000,17.000000 
	C1.000000,11.679660 1.000000,6.359320 1.000000,1.000000 
	C55.354221,1.000000 109.708450,1.000000 164.830109,1.295213 
	C164.579697,3.041579 163.197861,4.366099 162.637589,5.976453 
	C161.961578,7.919457 160.975784,10.842413 161.869598,12.062490 
	C166.680389,18.629467 171.403244,18.262480 176.058838,11.416674 
	C176.847931,10.256383 177.464767,8.978964 178.053268,7.945200 
	C175.893692,5.467405 173.946838,3.233703 172.000000,1.000001 
	C183.247131,1.000000 194.494247,1.000000 206.000000,1.000000 
	C206.000000,8.685612 206.000000,16.374113 205.707382,24.819294 
	C203.616592,23.127192 201.869461,20.638790 200.006943,18.239969 
	C197.827209,15.432581 196.337524,10.980402 191.344406,13.977968 
	C187.627075,16.209627 183.945862,18.512106 180.355072,20.940542 
	C177.511581,22.863573 177.130981,25.484997 178.932571,28.372675 
	C180.716507,31.232071 182.522354,34.079922 184.399078,36.878864 
	C187.858597,42.038357 188.717102,42.237885 194.192307,39.329193 
	C198.135986,37.234116 202.064636,35.110752 206.000000,33.000000 
	C206.000000,51.666679 206.000000,70.333359 206.000000,89.000000 
	C203.964081,89.000000 201.979950,89.000000 199.191116,88.682129 
	C200.250046,83.428856 202.113678,78.493469 203.977310,73.558083 
	C203.687317,73.260948 203.397324,72.963814 203.107330,72.666679 
	C202.121628,73.614471 200.833878,74.401871 200.224518,75.549500 
	C199.410568,77.082443 199.123169,78.894966 198.609619,80.587418 
	C199.890396,72.771385 191.177032,74.305336 188.844650,70.072975 
	C188.835510,70.056374 187.492142,70.537331 187.052719,71.034233 
	C184.233826,74.221954 188.074905,77.455566 187.099731,80.763885 
	C186.860641,81.575104 187.593552,83.059181 188.340393,83.675392 
	C189.242371,84.419571 190.634827,84.569260 191.815002,84.976257 
	C192.104767,84.108932 192.394531,83.241608 192.684280,82.374283 
	C187.682983,81.533562 190.919449,77.816422 190.509537,75.029732 
	C192.096832,75.489273 193.447098,76.289902 194.109146,77.474998 
	C196.228714,81.269264 197.773743,85.201317 194.000000,89.000000 
M145.995773,39.493984 
	C150.370621,46.453289 153.554962,47.734993 158.766373,44.502148 
	C155.250229,40.101742 151.744263,35.714069 148.269745,31.365770 
	C151.304352,28.193836 154.306763,25.055557 157.493027,21.725111 
	C148.585571,18.309849 145.645630,25.142052 140.863403,30.050171 
	C140.863403,23.024698 140.863403,16.531546 140.863403,8.251247 
	C137.786469,10.249924 134.311279,11.411860 134.257477,12.715004 
	C133.814774,23.441628 134.007416,34.194477 134.007416,44.684799 
	C136.737900,44.684799 138.826096,44.684799 140.542984,44.684799 
	C141.054871,41.489620 141.507431,38.664806 142.162262,34.577457 
	C143.944778,36.960758 144.692673,37.960728 145.995773,39.493984 
M44.668373,43.964802 
	C50.368645,48.241215 56.686451,42.587029 62.554630,45.015797 
	C63.056690,45.223587 64.089905,44.148056 63.766022,44.345470 
	C63.473839,39.632343 62.841854,35.786106 63.077198,31.993696 
	C63.681366,22.257904 56.527508,18.313295 49.276287,20.556408 
	C49.276287,22.356527 49.276287,24.116793 49.276287,25.351290 
	C51.872288,26.098293 54.068291,26.730196 56.264290,27.362099 
	C42.730190,30.533691 39.124397,35.067711 44.668373,43.964802 
M125.393028,35.000000 
	C126.845551,35.000000 128.298065,35.000000 129.759323,35.000000 
	C130.457779,29.219948 130.202713,24.383368 124.336052,21.795679 
	C119.225929,19.541683 114.445900,20.505772 110.301903,24.096708 
	C105.907814,27.904346 106.235664,32.942261 107.369774,37.325661 
	C108.454781,41.519310 111.922462,44.341694 116.981102,45.163788 
	C124.094360,46.319775 124.758583,46.149170 123.574806,41.210022 
	C119.819000,39.577469 116.713806,38.227718 113.608612,36.877968 
	C113.802116,36.251976 113.995621,35.625988 114.189125,35.000000 
	C117.603134,35.000000 121.017136,35.000000 125.393028,35.000000 
M70.008881,38.560165 
	C69.580376,40.585560 69.151871,42.610958 68.646599,44.999249 
	C72.639137,44.999249 75.789169,45.168945 78.913139,44.956135 
	C82.786140,44.692303 85.228851,42.285366 85.907494,38.631805 
	C86.528481,35.288635 85.107079,32.685574 81.736954,31.251497 
	C79.310585,30.219015 77.030098,28.843693 74.684547,27.621298 
	C74.842941,26.966608 75.001328,26.311920 75.159721,25.657230 
	C78.053680,25.929932 80.947632,26.202633 83.795654,26.471006 
	C84.122902,20.592480 82.438576,19.015085 75.925560,20.086966 
	C72.266251,20.689201 68.718903,22.129263 68.006119,26.624014 
	C67.258835,31.336246 70.348434,33.342091 73.937988,34.972977 
	C75.720818,35.782993 77.521461,36.553799 79.846672,37.576645 
	C76.488182,41.129292 73.616753,40.087555 70.008881,38.560165 
M91.943176,20.347658 
	C90.619644,20.740623 89.296120,21.133589 86.490967,21.966457 
	C88.543488,24.183582 89.960449,25.714182 92.000000,27.917303 
	C92.000000,30.354488 92.357788,34.042351 91.916023,37.631809 
	C91.255768,42.996490 94.464508,44.994381 98.667694,45.759491 
	C100.652916,46.120865 102.905716,45.012310 105.115250,44.553581 
	C104.974014,42.518116 104.855148,40.805222 104.729546,38.995090 
	C98.486420,40.999302 96.600769,36.737427 98.567162,26.146738 
	C100.324982,26.016235 102.082802,25.885733 103.735176,25.763060 
	C103.735176,24.039827 103.735176,22.632336 103.735176,21.122217 
	C101.723747,21.020525 99.969612,20.931843 98.152252,20.839962 
	C98.031372,18.736244 97.929573,16.964699 97.828590,15.207194 
	C92.673317,15.264409 92.414574,15.461802 91.943176,20.347658 
M183.001312,44.523880 
	C181.320282,44.023621 179.656204,43.209484 177.953125,43.117504 
	C176.457596,43.036739 173.854019,43.412098 173.592361,44.200691 
	C172.707260,46.868206 171.865723,50.032829 172.589645,52.552986 
	C172.965515,53.861443 176.628845,54.354870 178.878479,54.943741 
	C180.087402,55.260193 181.447266,54.999992 183.639069,54.999992 
	C183.639069,51.444218 183.639069,48.281086 183.001312,44.523880 
M148.805923,81.730865 
	C147.210831,81.730865 145.615753,81.730865 144.020660,81.730865 
	C144.009384,81.257027 143.998093,80.783188 143.986816,80.309357 
	C146.280136,80.131363 148.573441,79.953377 151.009552,79.764305 
	C150.785797,76.446487 150.986343,73.334526 146.484680,72.944061 
	C142.405273,72.590218 140.278214,75.252266 140.308090,78.211243 
	C140.330536,80.433846 142.589890,83.312706 144.659988,84.660721 
	C147.142090,86.277000 149.591293,84.129318 148.805923,81.730865 
M112.453751,84.021988 
	C112.628555,83.143951 112.803360,82.265915 112.855606,82.003487 
	C110.774567,81.714333 109.013931,81.469688 107.253296,81.225044 
	C107.300018,80.812317 107.346748,80.399582 107.393478,79.986855 
	C109.468102,79.986855 111.542725,79.986855 113.764534,79.986855 
	C114.340355,76.040558 114.013634,73.181183 109.277054,72.973106 
	C104.625999,72.768799 103.723625,75.432922 103.985107,79.286049 
	C104.252411,83.225044 106.884949,85.034126 112.453751,84.021988 
M134.001556,79.343132 
	C133.837723,79.786522 133.673904,80.229904 133.510071,80.673286 
	C133.411224,80.561348 133.266418,80.465652 133.220291,80.335091 
	C132.159164,77.331573 131.263092,74.255875 129.976669,71.352989 
	C129.495453,70.267090 128.109467,69.582146 127.136002,68.714378 
	C127.620293,73.219193 128.933029,76.829659 130.061371,80.496849 
	C131.022171,83.619560 132.649597,85.086159 135.605103,83.631859 
	C137.380142,78.696175 139.068237,74.002281 141.022827,68.567360 
	C135.139175,70.168877 136.662430,75.776192 134.001556,79.343132 
M73.948952,69.600708 
	C70.976776,67.551323 70.748688,70.465782 70.084579,71.941437 
	C69.032967,74.278137 68.357880,76.784286 67.451782,79.427902 
	C63.600590,76.495140 65.797935,70.223808 59.272034,68.599739 
	C61.306965,73.789566 62.850739,77.932076 64.589485,81.991058 
	C64.944832,82.820580 66.114517,83.943794 66.762253,83.855568 
	C67.743942,83.721855 69.029472,82.837204 69.429710,81.935822 
	C71.104652,78.163673 72.497688,74.266350 73.948952,69.600708 
M76.096176,77.381203 
	C75.467262,79.420830 74.838341,81.460464 74.209427,83.500099 
	C77.097504,83.767540 79.985573,84.034981 82.873650,84.302422 
	C83.072563,83.852531 83.271484,83.402641 83.470398,82.952759 
	C80.768059,80.075378 87.374352,72.875252 78.247299,73.073540 
	C77.121643,73.097992 76.017792,74.126106 74.903831,74.689133 
	C75.128372,75.057297 75.352921,75.425468 75.577461,75.793640 
	C76.986031,75.529381 78.394592,75.265129 79.803162,75.000877 
	C79.896103,75.493340 79.989044,75.985794 80.081985,76.478256 
	C79.001030,76.661690 77.920074,76.845123 76.096176,77.381203 
M158.336212,75.135002 
	C158.224487,76.777580 157.899979,78.439163 158.044708,80.058823 
	C158.358688,83.572205 162.325485,85.635384 165.517975,84.088570 
	C168.819412,82.488968 170.331314,78.021141 168.574753,75.055435 
	C167.010773,72.414856 162.673691,72.192604 158.336212,75.135002 
M28.640574,73.057739 
	C28.426731,74.982033 28.442768,76.972282 27.916378,78.806900 
	C27.578297,79.985207 26.441700,80.934395 25.663033,81.986290 
	C24.775591,80.876236 23.478098,79.889236 23.099194,78.626579 
	C22.563957,76.842979 22.707779,74.855591 22.561316,72.955322 
	C19.193502,83.687988 20.813786,85.533134 31.629074,83.276657 
	C30.942535,79.873390 30.250202,76.441399 28.640574,73.057739 
M99.051727,73.746864 
	C99.034470,75.073174 99.291306,76.480324 98.930031,77.705162 
	C98.486206,79.209862 97.526237,80.562317 96.789383,81.980583 
	C95.859886,80.547035 94.650284,79.214989 94.083199,77.650101 
	C93.562431,76.213005 93.734001,74.525009 93.600548,72.947556 
	C90.097786,83.545029 91.785530,85.485466 101.998131,83.445496 
	C101.998131,80.689468 102.159973,77.869499 101.890373,75.091408 
	C101.818192,74.347488 100.429436,73.731339 99.051727,73.746864 
M33.334373,84.032578 
	C35.359173,83.718452 38.245819,84.137627 39.251148,82.956085 
	C42.595654,79.025314 36.764050,78.413170 35.715347,75.464241 
	C36.545448,75.344437 37.266178,75.453445 37.550808,75.151443 
	C38.026123,74.647118 38.222603,73.879997 38.536469,73.223511 
	C36.607651,73.729752 34.678837,74.235985 32.750019,74.742226 
	C33.155109,76.160767 33.317806,77.721573 34.040817,78.953529 
	C34.635532,79.966881 35.895126,80.590027 36.338520,80.955833 
	C34.948494,82.049400 33.741962,82.998611 33.334373,84.032578 
M45.712208,84.997757 
	C48.085400,85.122490 48.984627,83.965332 47.333923,82.210266 
	C43.971855,78.635643 43.985031,76.539787 47.941074,73.723930 
	C45.752728,75.862167 43.564384,78.000404 41.376038,80.138641 
	C41.789642,77.222794 42.203247,74.306946 42.616852,71.391090 
	C42.998894,70.893051 43.380932,70.395012 43.762974,69.896973 
	C42.542110,71.220360 41.321247,72.543747 40.490894,73.443832 
	C41.063637,75.443817 41.411789,77.125763 42.029385,78.702156 
	C42.864765,80.834412 43.906990,82.885628 45.712208,84.997757 
M174.013214,73.018066 
	C172.749405,75.215370 170.450562,77.453941 170.536057,79.597427 
	C170.609787,81.446358 173.176041,83.514893 175.095795,84.812553 
	C175.852600,85.324127 177.843872,84.009415 179.811539,83.344284 
	C176.776627,81.815475 174.747131,80.793137 172.596542,79.709801 
	C174.194244,76.607246 174.766907,73.235512 179.475647,76.043320 
	C179.386154,75.305466 179.296661,74.567612 179.207153,73.829758 
	C177.751999,73.553581 176.296844,73.277405 174.013214,73.018066 
M154.502563,68.010048 
	C154.179810,68.043678 153.576035,68.065979 153.574158,68.112564 
	C153.363022,73.347458 153.160110,78.583771 153.104660,83.821571 
	C153.100662,84.199249 154.258194,84.959000 154.752014,84.868240 
	C155.246735,84.777321 155.947418,83.836334 155.937683,83.278778 
	C155.849060,78.208008 155.624710,73.139618 154.502563,68.010048 
M89.000000,80.339737 
	C88.999207,76.871834 89.076057,73.400635 88.929588,69.938896 
	C88.901581,69.277031 87.993309,68.652405 87.491158,68.010597 
	C86.994888,68.658302 86.093597,69.291199 86.069283,69.956154 
	C85.930565,73.749298 85.898499,77.554398 86.058929,81.345764 
	C86.110764,82.570602 86.854744,83.766151 87.282097,84.975098 
	C87.854729,83.748131 88.427368,82.521156 89.000000,80.339737 
M16.417185,76.055420 
	C17.315195,75.337311 18.213207,74.619202 19.894444,73.274780 
	C16.659672,73.274780 14.492666,73.274780 12.360441,73.274780 
	C12.360441,76.952721 12.360441,80.451492 12.360441,83.950264 
	C13.980233,83.530037 14.702071,82.739105 14.951933,81.819885 
	C15.405734,80.150368 15.578815,78.404556 16.417185,76.055420 
M183.958755,73.844765 
	C182.137085,72.169601 181.101395,72.582283 181.018753,75.038017 
	C180.941299,77.339622 180.895630,79.653770 181.065567,81.945374 
	C181.118057,82.653358 181.923477,83.305511 182.384140,83.983215 
	C182.922318,83.217873 183.849808,82.488525 183.924561,81.680336 
	C184.135849,79.395721 183.997574,77.078773 183.958755,73.844765 
M160.133194,24.602615 
	C162.016632,24.741196 163.900070,24.879776 165.749313,25.015841 
	C165.749313,23.376135 165.749313,22.307247 165.749313,21.204849 
	C163.431778,21.204849 161.368073,21.204849 159.365921,21.204849 
	C159.609940,22.170406 159.808762,22.957130 160.133194,24.602615 
z"/>
<path fill="#FFFFFF" opacity="1.000000" stroke="none" 
	d="
M1.000000,17.468657 
	C1.995220,15.525890 2.990440,14.051781 4.286218,12.132489 
	C6.124231,12.132489 8.758687,12.132489 11.977854,12.132489 
	C14.443890,19.189852 16.966063,26.407871 19.625887,34.019825 
	C21.816483,28.124144 24.156414,22.538309 25.940479,16.780245 
	C27.174858,12.796293 29.391619,11.295310 33.382423,11.975610 
	C34.345890,12.139850 35.361191,12.000021 36.871296,12.000021 
	C37.604038,23.160187 38.331577,34.241165 39.081886,45.668900 
	C36.826633,45.668900 34.746944,45.668900 32.201675,45.668900 
	C31.701883,38.121502 31.183388,30.291710 30.665560,22.471973 
	C28.139023,28.869730 25.210625,35.231285 23.196873,41.870274 
	C22.313271,44.783363 20.871971,45.504738 18.722054,44.862591 
	C17.280149,44.431915 15.649714,42.919693 15.103828,41.505360 
	C13.003701,36.064137 11.306626,30.467346 8.325524,25.012537 
	C8.023933,31.867397 7.722342,38.722256 7.402144,46.000000 
	C5.110602,46.000000 3.495218,46.000000 1.439917,46.000000 
	C1.000000,36.645771 1.000000,27.291542 1.000000,17.468657 
z"/>
<path fill="#FFFFFF" opacity="1.000000" stroke="none" 
	d="
M206.000000,32.555836 
	C202.064636,35.110752 198.135986,37.234116 194.192307,39.329193 
	C188.717102,42.237885 187.858597,42.038357 184.399078,36.878864 
	C182.522354,34.079922 180.716507,31.232071 178.932571,28.372675 
	C177.130981,25.484997 177.511581,22.863573 180.355072,20.940542 
	C183.945862,18.512106 187.627075,16.209627 191.344406,13.977968 
	C196.337524,10.980402 197.827209,15.432581 200.006943,18.239969 
	C201.869461,20.638790 203.616592,23.127192 205.707382,25.287987 
	C206.000000,27.370558 206.000000,29.741114 206.000000,32.555836 
z"/>
<path fill="#FFFFFF" opacity="1.000000" stroke="none" 
	d="
M171.562500,1.000001 
	C173.946838,3.233703 175.893692,5.467405 178.053268,7.945200 
	C177.464767,8.978964 176.847931,10.256383 176.058838,11.416674 
	C171.403244,18.262480 166.680389,18.629467 161.869598,12.062490 
	C160.975784,10.842413 161.961578,7.919457 162.637589,5.976453 
	C163.197861,4.366099 164.579697,3.041579 165.298767,1.295213 
	C167.041672,1.000000 169.083328,1.000000 171.562500,1.000001 
z"/>
<path fill="#FFFFFF" opacity="1.000000" stroke="none" 
	d="
M194.416656,89.000000 
	C197.773743,85.201317 196.228714,81.269264 194.109146,77.474998 
	C193.447098,76.289902 192.096832,75.489273 190.509537,75.029732 
	C190.919449,77.816422 187.682983,81.533562 192.684280,82.374283 
	C192.394531,83.241608 192.104767,84.108932 191.815002,84.976257 
	C190.634827,84.569260 189.242371,84.419571 188.340393,83.675392 
	C187.593552,83.059181 186.860641,81.575104 187.099731,80.763885 
	C188.074905,77.455566 184.233826,74.221954 187.052719,71.034233 
	C187.492142,70.537331 188.835510,70.056374 188.844650,70.072975 
	C191.177032,74.305336 199.890396,72.771385 198.609619,80.587418 
	C199.123169,78.894966 199.410568,77.082443 200.224518,75.549500 
	C200.833878,74.401871 202.121628,73.614471 203.107330,72.666679 
	C203.397324,72.963814 203.687317,73.260948 203.977310,73.558083 
	C202.113678,78.493469 200.250046,83.428856 198.693207,88.682129 
	C197.611115,89.000000 196.222214,89.000000 194.416656,89.000000 
z"/>
<path fill="#FFFFFF" opacity="1.000000" stroke="none" 
	d="
M1.000000,69.375000 
	C4.948306,69.000000 8.896612,69.000000 12.844917,69.000000 
	C13.012839,69.592094 13.180761,70.184196 13.348682,70.776291 
	C11.698794,71.389191 10.048905,72.002083 7.998362,72.763809 
	C7.998362,75.541786 8.076582,78.671379 7.941196,81.791702 
	C7.908937,82.535194 7.162952,83.247711 6.745248,83.974480 
	C6.164040,83.245384 5.149512,82.554283 5.081648,81.780182 
	C4.865010,79.309059 5.280139,76.757988 4.856709,74.342003 
	C4.694504,73.416496 2.926778,72.772385 1.445333,72.000023 
	C1.000000,71.250000 1.000000,70.500000 1.000000,69.375000 
z"/>
<path fill="#FFFFFF" opacity="1.000000" stroke="none" 
	d="
M145.718170,39.227341 
	C144.692673,37.960728 143.944778,36.960758 142.162262,34.577457 
	C141.507431,38.664806 141.054871,41.489620 140.542984,44.684799 
	C138.826096,44.684799 136.737900,44.684799 134.007416,44.684799 
	C134.007416,34.194477 133.814774,23.441628 134.257477,12.715004 
	C134.311279,11.411860 137.786469,10.249924 140.863403,8.251247 
	C140.863403,16.531546 140.863403,23.024698 140.863403,30.050171 
	C145.645630,25.142052 148.585571,18.309849 157.493027,21.725111 
	C154.306763,25.055557 151.304352,28.193836 148.269745,31.365770 
	C151.744263,35.714069 155.250229,40.101742 158.766373,44.502148 
	C153.554962,47.734993 150.370621,46.453289 145.718170,39.227341 
z"/>
<path fill="#FFFFFF" opacity="1.000000" stroke="none" 
	d="
M44.336811,43.728882 
	C39.124397,35.067711 42.730190,30.533691 56.264290,27.362099 
	C54.068291,26.730196 51.872288,26.098293 49.276287,25.351290 
	C49.276287,24.116793 49.276287,22.356527 49.276287,20.556408 
	C56.527508,18.313295 63.681366,22.257904 63.077198,31.993696 
	C62.841854,35.786106 63.473839,39.632343 63.766022,44.345470 
	C64.089905,44.148056 63.056690,45.223587 62.554630,45.015797 
	C56.686451,42.587029 50.368645,48.241215 44.336811,43.728882 
M49.034660,36.739498 
	C48.750603,39.964256 51.120972,40.694393 53.127510,39.828518 
	C54.978317,39.029854 56.213840,36.805367 57.720375,35.208900 
	C57.249123,34.605190 56.777870,34.001480 56.306614,33.397770 
	C54.023750,34.278141 51.740883,35.158512 49.034660,36.739498 
z"/>
<path fill="#FFFFFF" opacity="1.000000" stroke="none" 
	d="
M124.912086,35.000000 
	C121.017136,35.000000 117.603134,35.000000 114.189125,35.000000 
	C113.995621,35.625988 113.802116,36.251976 113.608612,36.877968 
	C116.713806,38.227718 119.819000,39.577469 123.574806,41.210022 
	C124.758583,46.149170 124.094360,46.319775 116.981102,45.163788 
	C111.922462,44.341694 108.454781,41.519310 107.369774,37.325661 
	C106.235664,32.942261 105.907814,27.904346 110.301903,24.096708 
	C114.445900,20.505772 119.225929,19.541683 124.336052,21.795679 
	C130.202713,24.383368 130.457779,29.219948 129.759323,35.000000 
	C128.298065,35.000000 126.845551,35.000000 124.912086,35.000000 
M118.504410,30.000000 
	C120.191498,30.000000 121.878586,30.000000 123.565681,30.000000 
	C123.726540,29.444237 123.887398,28.888474 124.048256,28.332710 
	C122.289421,27.555220 120.510208,26.128147 118.777466,26.182505 
	C117.036461,26.237125 115.341721,27.767002 113.626701,28.650383 
	C113.832893,29.100254 114.039078,29.550123 114.245270,29.999994 
	C115.379875,29.999994 116.514481,29.999994 118.504410,30.000000 
z"/>
<path fill="#FFFFFF" opacity="1.000000" stroke="none" 
	d="
M70.373306,38.766605 
	C73.616753,40.087555 76.488182,41.129292 79.846672,37.576645 
	C77.521461,36.553799 75.720818,35.782993 73.937988,34.972977 
	C70.348434,33.342091 67.258835,31.336246 68.006119,26.624014 
	C68.718903,22.129263 72.266251,20.689201 75.925560,20.086966 
	C82.438576,19.015085 84.122902,20.592480 83.795654,26.471006 
	C80.947632,26.202633 78.053680,25.929932 75.159721,25.657230 
	C75.001328,26.311920 74.842941,26.966608 74.684547,27.621298 
	C77.030098,28.843693 79.310585,30.219015 81.736954,31.251497 
	C85.107079,32.685574 86.528481,35.288635 85.907494,38.631805 
	C85.228851,42.285366 82.786140,44.692303 78.913139,44.956135 
	C75.789169,45.168945 72.639137,44.999249 68.646599,44.999249 
	C69.151871,42.610958 69.580376,40.585560 70.373306,38.766605 
z"/>
<path fill="#FFFFFF" opacity="1.000000" stroke="none" 
	d="
M91.969528,19.906937 
	C92.414574,15.461802 92.673317,15.264409 97.828590,15.207194 
	C97.929573,16.964699 98.031372,18.736244 98.152252,20.839962 
	C99.969612,20.931843 101.723747,21.020525 103.735176,21.122217 
	C103.735176,22.632336 103.735176,24.039827 103.735176,25.763060 
	C102.082802,25.885733 100.324982,26.016235 98.566757,26.147812 
	C96.600769,36.737427 98.486420,40.999302 104.729546,38.995090 
	C104.855148,40.805222 104.974014,42.518116 105.115250,44.553581 
	C102.905716,45.012310 100.652916,46.120865 98.667694,45.759491 
	C94.464508,44.994381 91.255768,42.996490 91.916023,37.631809 
	C92.357788,34.042351 92.000000,30.354488 92.000000,27.917303 
	C89.960449,25.714182 88.543488,24.183582 86.490967,21.966457 
	C89.296120,21.133589 90.619644,20.740623 91.969528,19.906937 
z"/>
<path fill="#FFFFFF" opacity="1.000000" stroke="none" 
	d="
M183.320190,44.820915 
	C183.639069,48.281086 183.639069,51.444218 183.639069,54.999992 
	C181.447266,54.999992 180.087402,55.260193 178.878479,54.943741 
	C176.628845,54.354870 172.965515,53.861443 172.589645,52.552986 
	C171.865723,50.032829 172.707260,46.868206 173.592361,44.200691 
	C173.854019,43.412098 176.457596,43.036739 177.953125,43.117504 
	C179.656204,43.209484 181.320282,44.023621 183.320190,44.820915 
z"/>
<path fill="#FFFFFF" opacity="1.000000" stroke="none" 
	d="
M149.096863,81.445587 
	C149.591293,84.129318 147.142090,86.277000 144.659988,84.660721 
	C142.589890,83.312706 140.330536,80.433846 140.308090,78.211243 
	C140.278214,75.252266 142.405273,72.590218 146.484680,72.944061 
	C150.986343,73.334526 150.785797,76.446487 151.009552,79.764305 
	C148.573441,79.953377 146.280136,80.131363 143.986816,80.309357 
	C143.998093,80.783188 144.009384,81.257027 144.020660,81.730865 
	C145.615753,81.730865 147.210831,81.730865 149.096863,81.445587 
z"/>
<path fill="#FFFFFF" opacity="1.000000" stroke="none" 
	d="
M112.183861,84.314110 
	C106.884949,85.034126 104.252411,83.225044 103.985107,79.286049 
	C103.723625,75.432922 104.625999,72.768799 109.277054,72.973106 
	C114.013634,73.181183 114.340355,76.040558 113.764534,79.986855 
	C111.542725,79.986855 109.468102,79.986855 107.393478,79.986855 
	C107.346748,80.399582 107.300018,80.812317 107.253296,81.225044 
	C109.013931,81.469688 110.774567,81.714333 112.855606,82.003487 
	C112.803360,82.265915 112.628555,83.143951 112.183861,84.314110 
z"/>
<path fill="#FFFFFF" opacity="1.000000" stroke="none" 
	d="
M134.023331,78.954666 
	C136.662430,75.776192 135.139175,70.168877 141.022827,68.567360 
	C139.068237,74.002281 137.380142,78.696175 135.605103,83.631859 
	C132.649597,85.086159 131.022171,83.619560 130.061371,80.496849 
	C128.933029,76.829659 127.620293,73.219193 127.136002,68.714378 
	C128.109467,69.582146 129.495453,70.267090 129.976669,71.352989 
	C131.263092,74.255875 132.159164,77.331573 133.220291,80.335091 
	C133.266418,80.465652 133.411224,80.561348 133.510071,80.673286 
	C133.673904,80.229904 133.837723,79.786522 134.023331,78.954666 
z"/>
<path fill="#FFFFFF" opacity="1.000000" stroke="none" 
	d="
M73.971481,70.007797 
	C72.497688,74.266350 71.104652,78.163673 69.429710,81.935822 
	C69.029472,82.837204 67.743942,83.721855 66.762253,83.855568 
	C66.114517,83.943794 64.944832,82.820580 64.589485,81.991058 
	C62.850739,77.932076 61.306965,73.789566 59.272034,68.599739 
	C65.797935,70.223808 63.600590,76.495140 67.451782,79.427902 
	C68.357880,76.784286 69.032967,74.278137 70.084579,71.941437 
	C70.748688,70.465782 70.976776,67.551323 73.971481,70.007797 
z"/>
<path fill="#FFFFFF" opacity="1.000000" stroke="none" 
	d="
M76.467651,77.204880 
	C77.920074,76.845123 79.001030,76.661690 80.081985,76.478256 
	C79.989044,75.985794 79.896103,75.493340 79.803162,75.000877 
	C78.394592,75.265129 76.986031,75.529381 75.577461,75.793640 
	C75.352921,75.425468 75.128372,75.057297 74.903831,74.689133 
	C76.017792,74.126106 77.121643,73.097992 78.247299,73.073540 
	C87.374352,72.875252 80.768059,80.075378 83.470398,82.952759 
	C83.271484,83.402641 83.072563,83.852531 82.873650,84.302422 
	C79.985573,84.034981 77.097504,83.767540 74.209427,83.500099 
	C74.838341,81.460464 75.467262,79.420830 76.467651,77.204880 
z"/>
<path fill="#FFFFFF" opacity="1.000000" stroke="none" 
	d="
M158.649780,74.848953 
	C162.673691,72.192604 167.010773,72.414856 168.574753,75.055435 
	C170.331314,78.021141 168.819412,82.488968 165.517975,84.088570 
	C162.325485,85.635384 158.358688,83.572205 158.044708,80.058823 
	C157.899979,78.439163 158.224487,76.777580 158.649780,74.848953 
M161.002060,77.676353 
	C161.695480,79.109856 162.388901,80.543358 163.082321,81.976868 
	C164.000137,81.465004 165.662231,80.996445 165.695007,80.433090 
	C165.790070,78.798698 165.231308,77.126274 164.929077,75.468781 
	C163.628723,75.928566 162.328354,76.388351 161.002060,77.676353 
z"/>
<path fill="#FFFFFF" opacity="1.000000" stroke="none" 
	d="
M29.099220,73.033569 
	C30.250202,76.441399 30.942535,79.873390 31.629074,83.276657 
	C20.813786,85.533134 19.193502,83.687988 22.561316,72.955322 
	C22.707779,74.855591 22.563957,76.842979 23.099194,78.626579 
	C23.478098,79.889236 24.775591,80.876236 25.663033,81.986290 
	C26.441700,80.934395 27.578297,79.985207 27.916378,78.806900 
	C28.442768,76.972282 28.426731,74.982033 29.099220,73.033569 
z"/>
<path fill="#FFFFFF" opacity="1.000000" stroke="none" 
	d="
M99.348404,73.401703 
	C100.429436,73.731339 101.818192,74.347488 101.890373,75.091408 
	C102.159973,77.869499 101.998131,80.689468 101.998131,83.445496 
	C91.785530,85.485466 90.097786,83.545029 93.600548,72.947556 
	C93.734001,74.525009 93.562431,76.213005 94.083199,77.650101 
	C94.650284,79.214989 95.859886,80.547035 96.789383,81.980583 
	C97.526237,80.562317 98.486206,79.209862 98.930031,77.705162 
	C99.291306,76.480324 99.034470,75.073174 99.348404,73.401703 
z"/>
<path fill="#FFFFFF" opacity="1.000000" stroke="none" 
	d="
M32.934902,83.990196 
	C33.741962,82.998611 34.948494,82.049400 36.338520,80.955833 
	C35.895126,80.590027 34.635532,79.966881 34.040817,78.953529 
	C33.317806,77.721573 33.155109,76.160767 32.750019,74.742226 
	C34.678837,74.235985 36.607651,73.729752 38.536469,73.223511 
	C38.222603,73.879997 38.026123,74.647118 37.550808,75.151443 
	C37.266178,75.453445 36.545448,75.344437 35.715347,75.464241 
	C36.764050,78.413170 42.595654,79.025314 39.251148,82.956085 
	C38.245819,84.137627 35.359173,83.718452 32.934902,83.990196 
z"/>
<path fill="#FFFFFF" opacity="1.000000" stroke="none" 
	d="
M45.286339,84.984688 
	C43.906990,82.885628 42.864765,80.834412 42.029385,78.702156 
	C41.411789,77.125763 41.063637,75.443817 40.490894,73.443832 
	C41.321247,72.543747 42.542110,71.220360 43.762974,69.896973 
	C43.380932,70.395012 42.998894,70.893051 42.616852,71.391090 
	C42.203247,74.306946 41.789642,77.222794 41.376038,80.138641 
	C43.564384,78.000404 45.752728,75.862167 47.941074,73.723930 
	C43.985031,76.539787 43.971855,78.635643 47.333923,82.210266 
	C48.984627,83.965332 48.085400,85.122490 45.286339,84.984688 
z"/>
<path fill="#FFFFFF" opacity="1.000000" stroke="none" 
	d="
M174.427460,73.009644 
	C176.296844,73.277405 177.751999,73.553581 179.207153,73.829758 
	C179.296661,74.567612 179.386154,75.305466 179.475647,76.043320 
	C174.766907,73.235512 174.194244,76.607246 172.596542,79.709801 
	C174.747131,80.793137 176.776627,81.815475 179.811539,83.344284 
	C177.843872,84.009415 175.852600,85.324127 175.095795,84.812553 
	C173.176041,83.514893 170.609787,81.446358 170.536057,79.597427 
	C170.450562,77.453941 172.749405,75.215370 174.427460,73.009644 
z"/>
<path fill="#FFFFFF" opacity="1.000000" stroke="none" 
	d="
M154.971313,68.040283 
	C155.624710,73.139618 155.849060,78.208008 155.937683,83.278778 
	C155.947418,83.836334 155.246735,84.777321 154.752014,84.868240 
	C154.258194,84.959000 153.100662,84.199249 153.104660,83.821571 
	C153.160110,78.583771 153.363022,73.347458 153.574158,68.112564 
	C153.576035,68.065979 154.179810,68.043678 154.971313,68.040283 
z"/>
<path fill="#FFFFFF" opacity="1.000000" stroke="none" 
	d="
M89.000000,80.816963 
	C88.427368,82.521156 87.854729,83.748131 87.282104,84.975098 
	C86.854744,83.766151 86.110764,82.570602 86.058929,81.345764 
	C85.898499,77.554398 85.930565,73.749298 86.069283,69.956154 
	C86.093597,69.291199 86.994888,68.658302 87.491158,68.010597 
	C87.993309,68.652405 88.901581,69.277031 88.929588,69.938896 
	C89.076057,73.400635 88.999207,76.871834 89.000000,80.816963 
z"/>
<path fill="#FFFFFF" opacity="1.000000" stroke="none" 
	d="
M16.143122,76.373001 
	C15.578815,78.404556 15.405734,80.150368 14.951933,81.819885 
	C14.702071,82.739105 13.980233,83.530037 12.360441,83.950264 
	C12.360441,80.451492 12.360441,76.952721 12.360441,73.274780 
	C14.492666,73.274780 16.659672,73.274780 19.894444,73.274780 
	C18.213207,74.619202 17.315195,75.337311 16.143122,76.373001 
z"/>
<path fill="#FFFFFF" opacity="1.000000" stroke="none" 
	d="
M183.977890,74.309662 
	C183.997574,77.078773 184.135849,79.395721 183.924561,81.680336 
	C183.849808,82.488525 182.922318,83.217873 182.384155,83.983215 
	C181.923477,83.305511 181.118057,82.653358 181.065567,81.945374 
	C180.895630,79.653770 180.941299,77.339622 181.018753,75.038017 
	C181.101395,72.582283 182.137085,72.169601 183.977890,74.309662 
z"/>
<path fill="#FFFFFF" opacity="1.000000" stroke="none" 
	d="
M160.070374,24.173235 
	C159.808762,22.957130 159.609940,22.170406 159.365921,21.204849 
	C161.368073,21.204849 163.431778,21.204849 165.749313,21.204849 
	C165.749313,22.307247 165.749313,23.376135 165.749313,25.015841 
	C163.900070,24.879776 162.016632,24.741196 160.070374,24.173235 
z"/>
<path fill="#000000" opacity="1.000000" stroke="none" 
	d="
M49.246338,36.389191 
	C51.740883,35.158512 54.023750,34.278141 56.306614,33.397770 
	C56.777870,34.001480 57.249123,34.605190 57.720375,35.208900 
	C56.213840,36.805367 54.978317,39.029854 53.127510,39.828518 
	C51.120972,40.694393 48.750603,39.964256 49.246338,36.389191 
z"/>
<path fill="#000000" opacity="1.000000" stroke="none" 
	d="
M118.076752,29.999996 
	C116.514481,29.999994 115.379875,29.999994 114.245270,29.999994 
	C114.039078,29.550123 113.832893,29.100254 113.626701,28.650383 
	C115.341721,27.767002 117.036461,26.237125 118.777466,26.182505 
	C120.510208,26.128147 122.289421,27.555220 124.048256,28.332710 
	C123.887398,28.888474 123.726540,29.444237 123.565681,30.000000 
	C121.878586,30.000000 120.191498,30.000000 118.076752,29.999996 
z"/>
<path fill="#000000" opacity="1.000000" stroke="none" 
	d="
M161.015030,77.262245 
	C162.328354,76.388351 163.628723,75.928566 164.929077,75.468781 
	C165.231308,77.126274 165.790070,78.798698 165.695007,80.433090 
	C165.662231,80.996445 164.000137,81.465004 163.082321,81.976868 
	C162.388901,80.543358 161.695480,79.109856 161.015030,77.262245 
z"/>
</svg>