<?xml version="1.0"?>
<svg version="1.1" xmlns="http://www.w3.org/2000/svg" width="400px" height="400px" style="border: 2px solid black;border-radius: 25px;"><path fill="#" d="M187.6,206.6c0,15.5-11.7,23.1-26.4,23.1c-0.8,0-5.3-0.2-6-0.3l0,22.2c0,1.5-0.6,2.4-2.5,2.4l-8,0c-1.6,0-2.4-0.7-2.4-2.7l0-63.8c0-2,0.6-2.7,2.5-2.7l14.5,0c10.6,0,18.4,2,23.3,7.6c3.2,3.7,5,8.8,5,14.2z M174.6,207.1c0-9.1-5.6-12.3-14.2-12.3l-5.2,0l0,24.8c0.8,0,5.3,0.1,5.9,0.1c8.5,0,13.5-4,13.5-12.6z"/><path fill="#" d="M245.7,189.6l-7.6,0l-21.3,52.9l-20.1-52.9l-6.3,0l26.4,70.4z"/></svg>
